<svg width="794" height="794" viewBox="0 0 794 794" fill="none" xmlns="http://www.w3.org/2000/svg">
<path d="M0 356.4C0 229.035 0 165.352 25.5716 117.055C46.2076 78.0808 78.0808 46.2076 117.055 25.5716C165.352 0 229.034 0 356.4 0H437.6C564.966 0 628.649 0 676.945 25.5716C715.92 46.2076 747.793 78.0808 768.429 117.055C794 165.352 794 229.034 794 356.4V437.6C794 564.966 794 628.649 768.429 676.945C747.793 715.92 715.92 747.793 676.945 768.429C628.649 794 564.966 794 437.6 794H356.4C229.035 794 165.352 794 117.055 768.429C78.0808 747.793 46.2076 715.92 25.5716 676.945C0 628.649 0 564.966 0 437.6V356.4Z" fill="url(#paint0_linear_2_2)"/>
<path d="M268.25 654.5H165.25C149.8 654.5 139.5 644.2 139.5 628.75V525.75C139.5 518.025 142.075 512.875 147.225 507.725L481.975 172.975C520.6 134.35 582.4 134.35 621.025 172.975C659.65 211.6 659.65 273.4 621.025 312.025L286.275 646.775C281.125 651.925 275.975 654.5 268.25 654.5V654.5ZM191 603H257.95L584.975 275.975C603 257.95 603 227.05 584.975 209.025C566.95 191 536.05 191 518.025 209.025L191 536.05V603V603Z" fill="black"/>
<path d="M564.375 358.375C556.65 358.375 551.5 355.8 546.35 350.65L443.35 247.65C433.05 237.35 433.05 221.9 443.35 211.6C453.65 201.3 469.1 201.3 479.4 211.6L582.4 314.6C592.7 324.9 592.7 340.35 582.4 350.65C577.25 355.8 572.1 358.375 564.375 358.375V358.375ZM294 422.75C286.275 422.75 281.125 420.175 275.975 415.025L147.225 286.275C136.925 275.975 136.925 260.525 147.225 250.225L250.225 147.225C260.525 136.925 275.975 136.925 286.275 147.225L415.025 275.975C425.325 286.275 425.325 301.725 415.025 312.025C404.725 322.325 389.275 322.325 378.975 312.025L268.25 201.3L201.3 268.25L312.025 378.975C322.325 389.275 322.325 404.725 312.025 415.025C306.875 420.175 301.725 422.75 294 422.75Z" fill="black"/>
<path d="M229.625 358.375C221.9 358.375 216.75 355.8 211.6 350.65C201.3 340.35 201.3 324.9 211.6 314.6L250.225 275.975C260.525 265.675 275.975 265.675 286.275 275.975C296.575 286.275 296.575 301.725 286.275 312.025L247.65 350.65C242.5 355.8 237.35 358.375 229.625 358.375V358.375ZM525.75 654.5C518.025 654.5 512.875 651.925 507.725 646.775L378.975 518.025C368.675 507.725 368.675 492.275 378.975 481.975C389.275 471.675 404.725 471.675 415.025 481.975L525.75 592.7L592.7 525.75L481.975 415.025C471.675 404.725 471.675 389.275 481.975 378.975C492.275 368.675 507.725 368.675 518.025 378.975L646.775 507.725C657.075 518.025 657.075 533.475 646.775 543.775L543.775 646.775C538.625 651.925 533.475 654.5 525.75 654.5V654.5Z" fill="black"/>
<path d="M461.375 590.125C453.65 590.125 448.5 587.55 443.35 582.4C433.05 572.1 433.05 556.65 443.35 546.35L481.975 507.725C492.275 497.425 507.725 497.425 518.025 507.725C528.325 518.025 528.325 533.475 518.025 543.775L479.4 582.4C474.25 587.55 469.1 590.125 461.375 590.125Z" fill="black"/>
<defs>
<linearGradient id="paint0_linear_2_2" x1="754.846" y1="803.802" x2="137.19" y2="-49.7768" gradientUnits="userSpaceOnUse">
<stop stop-color="#D2DAE2"/>
<stop offset="0.443664" stop-color="#EAF9FF"/>
<stop offset="1" stop-color="white"/>
</linearGradient>
</defs>
</svg>
